<svg width="281" height="53" viewBox="0 0 281 53" fill="none" xmlns="http://www.w3.org/2000/svg">
<g style="mix-blend-mode:multiply">
<path d="M119.458 49.3695C117.437 47.3979 116.424 44.7563 116.424 41.4389C116.424 40.2704 116.568 39.0299 116.861 37.7118L121.463 16.152H134.323L130.014 36.2498C129.87 36.9808 129.793 37.6841 129.793 38.3708C129.793 41.0014 131.255 42.3195 134.179 42.3195C135.835 42.3195 137.43 41.9318 138.964 41.151C138.98 41.1454 138.997 41.1344 139.008 41.1288C141.45 39.8772 143.134 37.518 143.704 34.832L147.692 16.1576H160.551L153.097 51.2358H140.675L141.478 47.4367C139.578 49.0427 137.468 50.2611 135.159 51.0918C132.844 51.917 130.518 52.3324 128.181 52.3324C124.382 52.3324 121.469 51.3466 119.447 49.375L119.458 49.3695ZM132.456 0.374031H142.995L145.26 13.383H139.362C137.562 13.383 135.979 12.2034 135.469 10.481L132.462 0.379574L132.456 0.374031Z" fill="#4C277E"/>
<path d="M94.3322 0.368496L85.809 40.3424H108.022L106.854 45.958C106.217 49.0261 103.509 51.2303 100.374 51.2303H70.607L81.2789 0.368496H94.3322Z" fill="#4C277E"/>
<path d="M182.57 0.368496H187.776L181.419 30.2575L195.962 16.152H210.721L193.109 33.1041L205.166 51.2247H190.407L180.178 35.8067L177.824 47.0933C177.32 49.4969 175.199 51.2247 172.746 51.2247H164.107L173.333 7.85045C174.263 3.48644 178.118 0.362961 182.582 0.362961L182.57 0.368496Z" fill="#4C277E"/>
<path d="M222.129 0.368496H229.389C232.275 0.368496 234.429 3.02678 233.831 5.84566L225.33 45.9802C224.682 49.0372 221.98 51.2303 218.856 51.2303H211.357L222.129 0.368496Z" fill="#4C277E"/>
<path d="M280.323 16.1576L274.01 46.2792C273.506 49.1147 271.329 51.186 268.444 51.186H261.782L262.74 46.8552C261.499 48.5055 259.738 49.7682 257.756 50.6432C255.773 51.5183 253.464 51.9613 250.833 51.9613C247.892 51.9613 245.328 51.2746 243.135 49.9122C240.942 48.5443 239.192 46.6503 237.874 44.2246C236.561 41.7989 235.902 38.9911 235.902 35.7901C235.902 31.4039 236.755 27.5882 238.455 24.3429C240.156 21.092 242.531 18.5667 245.572 16.7612C248.618 14.9558 252.173 14.0531 256.249 14.0531C258.619 14.0531 260.752 14.5072 262.629 15.4044C264.512 16.3071 267.342 18.1901 268.372 19.7906L269.131 16.1908C272.221 16.1687 280.323 16.1576 280.323 16.1576ZM257.407 23.3349C255.346 23.3349 253.513 23.8112 251.913 24.7693C250.312 25.7219 249.061 27.0787 248.158 28.8287C247.255 30.5788 246.807 32.6722 246.807 35.0923C246.807 37.518 247.516 39.3843 248.933 40.7024C250.351 42.0204 252.251 42.6739 254.621 42.6739C256.687 42.6739 258.514 42.1977 260.115 41.2451C261.715 40.2926 262.967 38.9468 263.864 37.2245C264.767 35.4966 265.215 33.3976 265.215 30.9221C265.215 28.4964 264.518 26.6301 263.128 25.312C261.737 23.994 259.827 23.3405 257.401 23.3405L257.407 23.3349Z" fill="#4C277E"/>
<path d="M45.8794 38.2878H6.87469C3.25943 38.2878 0.328673 41.2173 0.328673 44.831C0.328673 48.4448 3.25943 51.3743 6.87469 51.3743H45.8794C49.4947 51.3743 52.4254 48.4448 52.4254 44.831C52.4254 41.2173 49.4947 38.2878 45.8794 38.2878Z" fill="url(#paint0_linear_355_2)"/>
<path d="M40.358 18.9543H14.1573C10.542 18.9543 7.61126 21.8838 7.61126 25.4976C7.61126 29.1113 10.542 32.0408 14.1573 32.0408H40.358C43.9732 32.0408 46.904 29.1113 46.904 25.4976C46.904 21.8838 43.9732 18.9543 40.358 18.9543Z" fill="url(#paint1_linear_355_2)"/>
<path d="M37.0798 19.8344L3.59804 39.1651C0.467125 40.9727 -0.606224 44.9752 1.20064 48.1047C3.00751 51.2343 7.01038 52.306 10.1413 50.4984L43.623 31.1677C46.7539 29.36 47.8273 25.3576 46.0204 22.228C44.2135 19.0985 40.2107 18.0268 37.0798 19.8344Z" fill="url(#paint2_linear_355_2)" style="mix-blend-mode:multiply"/>
<path d="M46.4166 0.324188H35.85C32.2347 0.324188 29.3039 3.2537 29.3039 6.86744C29.3039 10.4812 32.2347 13.4107 35.85 13.4107H46.4166C50.0319 13.4107 52.9626 10.4812 52.9626 6.86744C52.9626 3.2537 50.0319 0.324188 46.4166 0.324188Z" fill="url(#paint3_linear_355_2)"/>
<path d="M43.1547 1.20227L10.8912 19.8296C7.7603 21.6373 6.68695 25.6397 8.49382 28.7692C10.3007 31.8988 14.3035 32.9705 17.4345 31.1629L49.698 12.5355C52.8289 10.7279 53.9022 6.72546 52.0954 3.59588C50.2885 0.46629 46.2856 -0.605368 43.1547 1.20227Z" fill="url(#paint4_linear_355_2)" style="mix-blend-mode:multiply"/>
</g>
<defs>
<linearGradient id="paint0_linear_355_2" x1="0.323242" y1="26.3391" x2="280.323" y2="26.3391" gradientUnits="userSpaceOnUse">
<stop stop-color="#9700D5"/>
<stop offset="1" stop-color="#9420FF"/>
</linearGradient>
<linearGradient id="paint1_linear_355_2" x1="0.323242" y1="26.3391" x2="280.323" y2="26.3391" gradientUnits="userSpaceOnUse">
<stop stop-color="#C05DE8"/>
<stop offset="0.44" stop-color="#F0AAFF"/>
<stop offset="1" stop-color="#FF4CA3"/>
</linearGradient>
<linearGradient id="paint2_linear_355_2" x1="101.803" y1="7.74958" x2="259.167" y2="145.756" gradientUnits="userSpaceOnUse">
<stop stop-color="#C263E8"/>
<stop offset="0.44" stop-color="#D498FF"/>
<stop offset="1" stop-color="#AA81FD"/>
</linearGradient>
<linearGradient id="paint3_linear_355_2" x1="0.323242" y1="26.3391" x2="280.389" y2="26.3391" gradientUnits="userSpaceOnUse">
<stop stop-color="#FFCD17"/>
<stop offset="1" stop-color="#FFDBA6"/>
</linearGradient>
<linearGradient id="paint4_linear_355_2" x1="18.1626" y1="15.2528" x2="60.4873" y2="17.8564" gradientUnits="userSpaceOnUse">
<stop stop-color="#E77D91"/>
<stop offset="0.52" stop-color="#FFB498"/>
<stop offset="1" stop-color="#FF9A46"/>
</linearGradient>
</defs>
</svg>
